<svg xmlns="http://www.w3.org/2000/svg" viewBox="0 0 800 200" width="800" height="200">
  <defs>
    <linearGradient id="bg" x1="0%" y1="0%" x2="100%" y2="100%">
      <stop offset="0%" style="stop-color:#1e3a5f"/>
      <stop offset="100%" style="stop-color:#0f172a"/>
    </linearGradient>
    <linearGradient id="shield" x1="0%" y1="0%" x2="0%" y2="100%">
      <stop offset="0%" style="stop-color:#2563eb"/>
      <stop offset="100%" style="stop-color:#1d4ed8"/>
    </linearGradient>
  </defs>
  <rect width="800" height="200" fill="url(#bg)"/>
  <path fill="url(#shield)" d="M340 50L220 110v50c0 45 50 80 120 90 70-10 120-45 120-90v-50L340 50z"/>
  <path fill="white" d="M320 95c-4 0-8 3-8 8v6h4v-6c0-2 2-4 4-4s4 2 4 4v6h4v-6c0-5-4-8-8-8zm0 20c-3 0-6 2-6 5v4h12v-4c0-3-3-5-6-5z"/>
  <text x="400" y="130" font-family="system-ui,-apple-system,sans-serif" font-size="42" font-weight="700" fill="white" text-anchor="middle">IronShield EDR</text>
  <text x="400" y="165" font-family="system-ui,-apple-system,sans-serif" font-size="16" fill="#94a3b8" text-anchor="middle">Endpoint Detection &amp; Response Platform</text>
</svg>
