<svg xmlns="http://www.w3.org/2000/svg" viewBox="0 0 700 380" width="700" height="380">
  <defs>
    <linearGradient id="sidebar" x1="0%" y1="0%" x2="100%" y2="0%">
      <stop offset="0%" style="stop-color:#f1f5f9"/>
      <stop offset="100%" style="stop-color:#e2e8f0"/>
    </linearGradient>
  </defs>
  <rect width="700" height="380" fill="#f8fafc" rx="8"/>
  <rect x="0" y="0" width="200" height="380" fill="url(#sidebar)" rx="8"/>
  <rect x="16" y="20" width="168" height="36" fill="#2563eb" rx="6"/>
  <text x="100" y="42" font-family="system-ui,sans-serif" font-size="12" font-weight="600" fill="white" text-anchor="middle">IronShield EDR</text>
  <rect x="16" y="70" width="168" height="28" fill="#e2e8f0" rx="4"/>
  <rect x="16" y="105" width="168" height="28" fill="transparent" stroke="#cbd5e1" rx="4"/>
  <rect x="16" y="140" width="168" height="28" fill="transparent" stroke="#cbd5e1" rx="4"/>
  <rect x="220" y="20" width="460" height="40" fill="white" stroke="#e2e8f0" rx="6"/>
  <rect x="220" y="75" width="220" height="120" fill="white" stroke="#e2e8f0" rx="6"/>
  <rect x="455" y="75" width="225" height="120" fill="white" stroke="#e2e8f0" rx="6"/>
  <rect x="220" y="210" width="460" height="150" fill="white" stroke="#e2e8f0" rx="6"/>
  <text x="330" y="100" font-family="system-ui,sans-serif" font-size="11" fill="#64748b">Endpoints</text>
  <text x="330" y="115" font-family="system-ui,sans-serif" font-size="24" font-weight="600" fill="#1e293b">24</text>
  <text x="565" y="100" font-family="system-ui,sans-serif" font-size="11" fill="#64748b">Alerts</text>
  <text x="565" y="115" font-family="system-ui,sans-serif" font-size="24" font-weight="600" fill="#dc2626">7</text>
  <text x="240" y="240" font-family="system-ui,sans-serif" font-size="12" fill="#64748b">Recent Events</text>
  <line x1="240" y1="250" x2="660" y2="250" stroke="#e2e8f0"/>
  <rect x="240" y="265" width="420" height="20" fill="#f8fafc" rx="2"/>
  <rect x="240" y="295" width="420" height="20" fill="#f8fafc" rx="2"/>
  <rect x="240" y="325" width="420" height="20" fill="#f8fafc" rx="2"/>
</svg>
