<svg xmlns="http://www.w3.org/2000/svg" viewBox="0 0 700 360" width="700" height="360">
  <rect width="700" height="360" fill="#f8fafc" rx="8"/>
  <text x="24" y="36" font-family="system-ui,sans-serif" font-size="16" font-weight="700" fill="#0f172a">Detection rules</text>
  <text x="24" y="56" font-family="system-ui,sans-serif" font-size="10" fill="#94a3b8">Custom IOA · MITRE · enable / disable</text>
  <rect x="24" y="72" width="652" height="36" fill="#fff" stroke="#e2e8f0" rx="8"/>
  <rect x="32" y="80" width="100" height="20" fill="#dbeafe" rx="4"/>
  <rect x="140" y="80" width="80" height="20" fill="#f1f5f9" rx="4"/>
  <rect x="600" y="78" width="68" height="24" fill="#2563eb" rx="4"/>
  <text x="634" y="94" font-family="system-ui,sans-serif" font-size="9" font-weight="600" fill="#fff" text-anchor="middle">New rule</text>
  <rect x="24" y="120" width="652" height="216" fill="#fff" stroke="#e2e8f0" rx="8"/>
  <line x1="40" y1="152" x2="660" y2="152" stroke="#e2e8f0"/>
  <text x="44" y="144" font-family="system-ui,sans-serif" font-size="9" font-weight="600" fill="#64748b">RULE NAME</text>
  <text x="320" y="144" font-family="system-ui,sans-serif" font-size="9" font-weight="600" fill="#64748b">SEVERITY</text>
  <text x="420" y="144" font-family="system-ui,sans-serif" font-size="9" font-weight="600" fill="#64748b">STATUS</text>
  <text x="520" y="144" font-family="system-ui,sans-serif" font-size="9" font-weight="600" fill="#64748b">MITRE</text>
  <rect x="44" y="164" width="240" height="12" fill="#f8fafc" rx="2"/>
  <rect x="320" y="164" width="48" height="14" fill="#fef3c7" rx="3"/>
  <text x="332" y="174" font-family="system-ui,sans-serif" font-size="7" fill="#a16207">High</text>
  <rect x="420" y="164" width="44" height="14" fill="#dcfce7" rx="3"/>
  <text x="428" y="174" font-family="system-ui,sans-serif" font-size="7" fill="#166534">On</text>
  <rect x="520" y="164" width="100" height="12" fill="#f8fafc" rx="2"/>
  <rect x="44" y="190" width="240" height="12" fill="#f8fafc" rx="2"/>
  <rect x="320" y="190" width="48" height="14" fill="#e0f2fe" rx="3"/>
  <text x="332" y="200" font-family="system-ui,sans-serif" font-size="7" fill="#0369a1">Med</text>
  <rect x="420" y="190" width="44" height="14" fill="#f1f5f9" rx="3"/>
  <text x="426" y="200" font-family="system-ui,sans-serif" font-size="7" fill="#64748b">Off</text>
  <rect x="520" y="190" width="100" height="12" fill="#f8fafc" rx="2"/>
</svg>
