<svg xmlns="http://www.w3.org/2000/svg" viewBox="0 0 700 360" width="700" height="360">
  <defs>
    <linearGradient id="bgNet" x1="0%" y1="0%" x2="0%" y2="100%">
      <stop offset="0%" style="stop-color:#f8fafc"/>
      <stop offset="100%" style="stop-color:#f1f5f9"/>
    </linearGradient>
  </defs>
  <rect width="700" height="360" fill="url(#bgNet)" rx="8"/>
  <text x="24" y="32" font-family="system-ui,sans-serif" font-size="11" fill="#64748b">Explore</text>
  <text x="24" y="54" font-family="system-ui,sans-serif" font-size="18" font-weight="700" fill="#0f172a">Network activity</text>
  <text x="24" y="76" font-family="system-ui,sans-serif" font-size="10" fill="#94a3b8">Connections · KPIs · scope badges (RFC1918 / External)</text>
  <rect x="24" y="88" width="652" height="36" fill="#fff" stroke="#e2e8f0" rx="6"/>
  <rect x="32" y="96" width="120" height="20" fill="#f1f5f9" rx="4"/>
  <rect x="160" y="96" width="100" height="20" fill="#f1f5f9" rx="4"/>
  <rect x="24" y="136" width="158" height="72" fill="#fff" stroke="#e2e8f0" rx="8"/>
  <text x="36" y="168" font-family="system-ui,sans-serif" font-size="20" font-weight="600" fill="#2563eb">1,248</text>
  <text x="36" y="188" font-family="system-ui,sans-serif" font-size="9" fill="#94a3b8">CONNECTIONS (WINDOW)</text>
  <rect x="190" y="136" width="158" height="72" fill="#fff" stroke="#e2e8f0" rx="8"/>
  <text x="202" y="168" font-family="system-ui,sans-serif" font-size="20" font-weight="600" fill="#2563eb">86</text>
  <text x="202" y="188" font-family="system-ui,sans-serif" font-size="9" fill="#94a3b8">UNIQUE REMOTE IPS</text>
  <rect x="356" y="136" width="158" height="72" fill="#fff" stroke="#e2e8f0" rx="8"/>
  <text x="368" y="168" font-family="system-ui,sans-serif" font-size="20" font-weight="600" fill="#2563eb">142</text>
  <text x="368" y="188" font-family="system-ui,sans-serif" font-size="9" fill="#94a3b8">OUTGOING DESTINATIONS</text>
  <rect x="522" y="136" width="154" height="72" fill="#fff" stroke="#e2e8f0" rx="8"/>
  <text x="534" y="168" font-family="system-ui,sans-serif" font-size="20" font-weight="600" fill="#2563eb">12</text>
  <text x="534" y="188" font-family="system-ui,sans-serif" font-size="9" fill="#94a3b8">HOSTS WITH ACTIVITY</text>
  <rect x="24" y="220" width="400" height="28" fill="#e2e8f0" rx="6"/>
  <rect x="28" y="226" width="88" height="16" fill="#dbeafe" rx="4"/>
  <rect x="120" y="226" width="88" height="16" fill="#f1f5f9" rx="4"/>
  <rect x="212" y="226" width="100" height="16" fill="#f1f5f9" rx="4"/>
  <rect x="316" y="226" width="100" height="16" fill="#f1f5f9" rx="4"/>
  <rect x="24" y="258" width="652" height="84" fill="#fff" stroke="#e2e8f0" rx="8"/>
  <line x1="36" y1="278" x2="664" y2="278" stroke="#e2e8f0"/>
  <text x="40" y="272" font-family="ui-monospace,monospace" font-size="9" fill="#64748b">Endpoint</text>
  <text x="180" y="272" font-family="ui-monospace,monospace" font-size="9" fill="#64748b">Remote</text>
  <text x="340" y="272" font-family="ui-monospace,monospace" font-size="9" fill="#64748b">Scope</text>
  <rect x="340" y="288" width="48" height="14" fill="#fee2e2" stroke="#fecaca" rx="3"/>
  <text x="352" y="298" font-family="system-ui,sans-serif" font-size="7" fill="#b91c1c">EXTERNAL</text>
  <rect x="36" y="288" width="120" height="12" fill="#f8fafc" rx="2"/>
  <rect x="180" y="288" width="140" height="12" fill="#f8fafc" rx="2"/>
  <rect x="36" y="310" width="120" height="12" fill="#f8fafc" rx="2"/>
  <rect x="180" y="310" width="140" height="12" fill="#f8fafc" rx="2"/>
</svg>
